<mxfile host="app.diagrams.net" modified="2023-08-08T04:38:02.845Z" agent="Mozilla/5.0 (Windows NT 10.0; Win64; x64) AppleWebKit/537.36 (KHTML, like Gecko) Chrome/115.0.0.0 Safari/537.36" etag="5-uoT2daWL5fJ-R5-g3Q" version="21.6.6" type="github">
  <diagram name="Page-1" id="MVOP0cMZva7Nr5U583TV">
    <mxGraphModel dx="938" dy="481" grid="1" gridSize="10" guides="1" tooltips="1" connect="1" arrows="1" fold="1" page="1" pageScale="1" pageWidth="827" pageHeight="1169" math="0" shadow="0">
      <root>
        <mxCell id="0" />
        <mxCell id="1" parent="0" />
        <mxCell id="Hv7-FbxDfW1qlbqKoqz0-12" value="" style="group;fontSize=12;" vertex="1" connectable="0" parent="1">
          <mxGeometry x="210" y="70" width="390" height="310" as="geometry" />
        </mxCell>
        <mxCell id="Hv7-FbxDfW1qlbqKoqz0-2" value="&lt;p style=&quot;margin: 0cm 17.5pt 0.0001pt 17.6pt; line-height: 90%;&quot; align=&quot;center&quot; class=&quot;MsoNormal&quot;&gt;&lt;font style=&quot;font-size: 12px;&quot;&gt;DynamicFees&amp;amp; Charges Apply &lt;/font&gt;&lt;span style=&quot;letter-spacing:-.8pt&quot;&gt; &lt;/span&gt;&lt;span style=&quot;letter-spacing:-.8pt&quot;&gt; &lt;/span&gt;&lt;span style=&quot;font-size: 14pt; line-height: 90%;&quot; lang=&quot;EN-US&quot;&gt;&lt;/span&gt;&lt;span style=&quot;font-size:14.0pt;mso-bidi-font-size:11.0pt;line-height:90%&quot; lang=&quot;EN-US&quot;&gt;&lt;/span&gt;&lt;/p&gt;" style="verticalLabelPosition=middle;verticalAlign=top;html=1;shape=mxgraph.infographic.numberedEntryVert;dy=25;strokeColor=none;fontSize=17;fontColor=#FFFFFF;align=center;labelPosition=center;spacingTop=32;fontStyle=1;whiteSpace=wrap;fillColor=#10739E;" vertex="1" parent="Hv7-FbxDfW1qlbqKoqz0-12">
          <mxGeometry width="124.8" height="110" as="geometry" />
        </mxCell>
        <mxCell id="Hv7-FbxDfW1qlbqKoqz0-3" value="&lt;font style=&quot;font-size: 12px;&quot;&gt;IPO Management&lt;/font&gt;" style="verticalLabelPosition=middle;verticalAlign=top;html=1;shape=mxgraph.infographic.numberedEntryVert;dy=25;strokeColor=#005700;fontSize=17;align=center;labelPosition=center;spacingTop=32;fontStyle=1;whiteSpace=wrap;fillColor=#008a00;fontColor=#ffffff;" vertex="1" parent="Hv7-FbxDfW1qlbqKoqz0-12">
          <mxGeometry x="132.59999999999997" width="124.8" height="110" as="geometry" />
        </mxCell>
        <mxCell id="Hv7-FbxDfW1qlbqKoqz0-4" value="&lt;font style=&quot;font-size: 12px;&quot;&gt;Investor Scheme and Grade Management&lt;/font&gt;" style="verticalLabelPosition=middle;verticalAlign=top;html=1;shape=mxgraph.infographic.numberedEntryVert;dy=25;strokeColor=none;fontSize=17;fontColor=#FFFFFF;align=center;labelPosition=center;spacingTop=32;fontStyle=1;whiteSpace=wrap;fillColor=#AE4132;" vertex="1" parent="Hv7-FbxDfW1qlbqKoqz0-12">
          <mxGeometry x="265.19999999999993" width="124.8" height="110" as="geometry" />
        </mxCell>
        <mxCell id="Hv7-FbxDfW1qlbqKoqz0-5" value="&lt;font style=&quot;font-size: 12px;&quot;&gt;Margin Call Management&lt;/font&gt;" style="verticalLabelPosition=middle;verticalAlign=top;html=1;shape=mxgraph.infographic.numberedEntryVert;dy=25;strokeColor=none;fontSize=17;fontColor=#FFFFFF;align=center;labelPosition=center;spacingTop=32;fontStyle=1;whiteSpace=wrap;fillColor=#23445D;" vertex="1" parent="Hv7-FbxDfW1qlbqKoqz0-12">
          <mxGeometry y="100" width="124.8" height="110" as="geometry" />
        </mxCell>
        <mxCell id="Hv7-FbxDfW1qlbqKoqz0-6" value="&lt;font style=&quot;font-size: 12px;&quot;&gt;Auto Email and SMS&lt;/font&gt;" style="verticalLabelPosition=middle;verticalAlign=top;html=1;shape=mxgraph.infographic.numberedEntryVert;dy=25;strokeColor=#6F0000;fontSize=17;fontColor=#ffffff;align=center;labelPosition=center;spacingTop=32;fontStyle=1;whiteSpace=wrap;fillColor=#a20025;" vertex="1" parent="Hv7-FbxDfW1qlbqKoqz0-12">
          <mxGeometry x="132.59999999999997" y="100" width="124.8" height="110" as="geometry" />
        </mxCell>
        <mxCell id="Hv7-FbxDfW1qlbqKoqz0-8" value="&lt;font style=&quot;font-size: 12px;&quot;&gt;Web-Portal for Reporting and IPO&lt;/font&gt;" style="verticalLabelPosition=middle;verticalAlign=top;html=1;shape=mxgraph.infographic.numberedEntryVert;dy=25;strokeColor=none;fontSize=17;fontColor=#FFFFFF;align=center;labelPosition=center;spacingTop=32;fontStyle=1;whiteSpace=wrap;fillColor=#F2931E;" vertex="1" parent="Hv7-FbxDfW1qlbqKoqz0-12">
          <mxGeometry x="265.19999999999993" y="100" width="124.8" height="110" as="geometry" />
        </mxCell>
        <mxCell id="Hv7-FbxDfW1qlbqKoqz0-9" value="&lt;font style=&quot;font-size: 12px;&quot;&gt;Dashboard for Investors and Management&lt;/font&gt;" style="verticalLabelPosition=middle;verticalAlign=top;html=1;shape=mxgraph.infographic.numberedEntryVert;dy=25;strokeColor=#3700CC;fontSize=17;align=center;labelPosition=center;spacingTop=32;fontStyle=1;whiteSpace=wrap;fillColor=#9933FF;fontColor=#ffffff;" vertex="1" parent="Hv7-FbxDfW1qlbqKoqz0-12">
          <mxGeometry y="200" width="124.8" height="110" as="geometry" />
        </mxCell>
        <mxCell id="Hv7-FbxDfW1qlbqKoqz0-10" value="&lt;font style=&quot;font-size: 12px;&quot;&gt;OMS Integration&lt;/font&gt;" style="verticalLabelPosition=middle;verticalAlign=top;html=1;shape=mxgraph.infographic.numberedEntryVert;dy=25;strokeColor=none;fontSize=17;fontColor=#FFFFFF;align=center;labelPosition=center;spacingTop=32;fontStyle=1;whiteSpace=wrap;fillColor=#7EA6E0;" vertex="1" parent="Hv7-FbxDfW1qlbqKoqz0-12">
          <mxGeometry x="132.59999999999997" y="200" width="124.8" height="110" as="geometry" />
        </mxCell>
        <mxCell id="Hv7-FbxDfW1qlbqKoqz0-11" value="&lt;font style=&quot;font-size: 12px;&quot; color=&quot;#ffffff&quot;&gt;300+ Reports&lt;/font&gt;" style="verticalLabelPosition=middle;verticalAlign=top;html=1;shape=mxgraph.infographic.numberedEntryVert;dy=25;strokeColor=#666666;fontSize=17;align=center;labelPosition=center;spacingTop=32;fontStyle=1;whiteSpace=wrap;fillColor=#A680B8;gradientColor=#b3b3b3;" vertex="1" parent="Hv7-FbxDfW1qlbqKoqz0-12">
          <mxGeometry x="265.19999999999993" y="200" width="124.8" height="110" as="geometry" />
        </mxCell>
      </root>
    </mxGraphModel>
  </diagram>
</mxfile>
